<?xml version="1.0" encoding="iso-8859-1"?>
<!-- Generator: Adobe Illustrator 19.0.0, SVG Export Plug-In . SVG Version: 6.00 Build 0)  -->
<svg version="1.1" id="Layer_1" xmlns="http://www.w3.org/2000/svg" x="0px"
     fill="currentColor"
     y="0px"
     viewBox="0 0 512 512" style="enable-background:new 0 0 512 512;" xml:space="preserve">
<g fill="currentColor">
	<g fill="currentColor">
		<path fill="currentColor" d="M376.661,4.992C374.607,1.807,371.085,0,367.303,0H255.998c-4.37,0-8.326,2.438-10.13,6.405L23.259,496.087
			c-1.565,3.445-1.272,7.543,0.772,10.717c2.054,3.185,5.576,5.196,9.359,5.196h111.304c4.37,0,8.326-2.671,10.13-6.638
			L377.433,15.622C378.998,12.177,378.705,8.166,376.661,4.992z M137.531,489.739H50.672L263.161,22.261h86.859L137.531,489.739z"/>
	</g>
</g>
    <g fill="currentColor">
	<g fill="currentColor">
		<path fill="currentColor" d="M400.694,333.679c-49.098,0-89.044,39.946-89.044,89.043c0,49.098,39.946,89.044,89.044,89.044
			c49.098,0,89.043-39.946,89.043-89.044C489.738,373.625,449.792,333.679,400.694,333.679z M400.694,489.505
			c-36.826,0-66.783-29.956-66.783-66.783s29.956-66.783,66.783-66.783s66.783,29.956,66.783,66.783S437.52,489.505,400.694,489.505
			z"/>
	</g>
</g>
    <g>
</g>
    <g>
</g>
    <g>
</g>
    <g>
</g>
    <g>
</g>
    <g>
</g>
    <g>
</g>
    <g>
</g>
    <g>
</g>
    <g>
</g>
    <g>
</g>
    <g>
</g>
    <g>
</g>
    <g>
</g>
    <g>
</g>
</svg>
